<?xml version="1.0" encoding="UTF-8"?>
<svg width="218" height="65" viewBox="0 0 218 65" xmlns="http://www.w3.org/2000/svg">
  <defs>
    <!-- Gradient for subtle depth effect -->
    <linearGradient id="buttonGradient" x1="0%" y1="0%" x2="0%" y2="100%">
      <stop offset="0%" style="stop-color:#1a1a1a;stop-opacity:1" />
      <stop offset="100%" style="stop-color:#000000;stop-opacity:1" />
    </linearGradient>
    
    <!-- Drop shadow filter -->
    <filter id="dropshadow" x="-20%" y="-20%" width="140%" height="140%">
      <feDropShadow dx="0" dy="1" stdDeviation="2" flood-color="#000000" flood-opacity="0.3"/>
    </filter>
  </defs>
  
  <!-- Button background with rounded corners -->
  <rect x="1" y="1" width="216" height="63" rx="8" ry="8" 
        fill="url(#buttonGradient)" 
        stroke="#333333" 
        stroke-width="0.5" 
        filter="url(#dropshadow)"/>
  
  <!-- Apple logo -->
  <g transform="translate(15, 16)">
    <path d="M14.5 22.8c-0.8 0-1.6-0.2-2.3-0.6c-0.7-0.4-1.3-1-1.7-1.7c-0.4-0.7-0.6-1.6-0.6-2.5c0-0.9 0.2-1.8 0.6-2.5c0.4-0.7 1-1.3 1.7-1.7c0.7-0.4 1.5-0.6 2.3-0.6c0.8 0 1.6 0.2 2.3 0.6c0.7 0.4 1.3 1 1.7 1.7c0.4 0.7 0.6 1.6 0.6 2.5c0 0.9-0.2 1.8-0.6 2.5c-0.4 0.7-1 1.3-1.7 1.7c-0.7 0.4-1.5 0.6-2.3 0.6zm0-1.2c0.6 0 1.1-0.2 1.6-0.5c0.5-0.3 0.9-0.7 1.2-1.3c0.3-0.6 0.4-1.2 0.4-1.9c0-0.7-0.1-1.3-0.4-1.9c-0.3-0.6-0.7-1-1.2-1.3c-0.5-0.3-1-0.5-1.6-0.5c-0.6 0-1.1 0.2-1.6 0.5c-0.5 0.3-0.9 0.7-1.2 1.3c-0.3 0.6-0.4 1.2-0.4 1.9c0 0.7 0.1 1.3 0.4 1.9c0.3 0.6 0.7 1 1.2 1.3c0.5 0.3 1 0.5 1.6 0.5z" fill="white"/>
    <path d="M13.2 6.5c0-1.3 1.1-2.4 2.4-2.4s2.4 1.1 2.4 2.4c0 0.5-0.2 1-0.5 1.4c-0.8 1-1.9 2.3-1.9 4.1c0 0.4-0.3 0.7-0.7 0.7s-0.7-0.3-0.7-0.7c0-1.8-1.1-3.1-1.9-4.1c-0.3-0.4-0.5-0.9-0.5-1.4z" fill="white"/>
  </g>
  
  <!-- "Coming Soon on the" text -->
  <text x="50" y="23" font-family="-apple-system, BlinkMacSystemFont, 'SF Pro Text', 'Helvetica Neue', Helvetica, Arial, sans-serif" 
        font-size="11" font-weight="400" fill="white" letter-spacing="0.3px">Coming Soon on the</text>
  
  <!-- "App Store" text -->
  <text x="50" y="42" font-family="-apple-system, BlinkMacSystemFont, 'SF Pro Display', 'Helvetica Neue', Helvetica, Arial, sans-serif" 
        font-size="20" font-weight="500" fill="white" letter-spacing="-0.3px">App Store</text>
</svg> 